<!DOCTYPE svg PUBLIC "-//W3C//DTD SVG 20010904//EN" "http://www.w3.org/TR/2001/REC-SVG-20010904/DTD/svg10.dtd">
<svg version="1.0" xmlns="http://www.w3.org/2000/svg" width="1600px" height="1600px" viewBox="0 0 16000 16000" preserveAspectRatio="xMidYMid meet">
<g id="layer101" fill="#000000" stroke="none">
 <path d="M7865 15979 c-50 -4 -118 -14 -150 -23 -33 -9 -83 -22 -110 -30 -73 -20 -219 -92 -304 -150 -70 -47 -228 -196 -279 -261 -87 -114 -180 -305 -206 -426 -22 -102 -34 -287 -25 -389 4 -47 8 -122 8 -168 l1 -82 -51 -28 c-28 -15 -67 -37 -85 -50 -19 -12 -65 -38 -102 -58 -37 -20 -78 -45 -91 -55 -13 -11 -28 -19 -33 -19 -6 0 -36 -16 -68 -36 -32 -19 -71 -43 -88 -52 -66 -37 -169 -96 -202 -117 -19 -12 -64 -39 -100 -59 -36 -20 -72 -41 -80 -46 -8 -5 -44 -26 -80 -47 -65 -38 -94 -54 -192 -107 -29 -16 -76 -44 -104 -62 -28 -19 -54 -34 -58 -34 -3 0 -35 -18 -70 -40 -35 -22 -68 -40 -73 -40 -6 0 -21 -8 -34 -19 -13 -10 -51 -33 -84 -51 -33 -18 -78 -43 -100 -57 -72 -44 -159 -95 -225 -130 -36 -20 -72 -42 -81 -49 -8 -8 -20 -14 -25 -14 -6 0 -38 -18 -72 -40 -33 -22 -65 -40 -70 -40 -5 0 -26 -11 -47 -25 -20 -14 -67 -42 -103 -62 -37 -20 -78 -45 -91 -55 -13 -10 -28 -18 -34 -18 -5 0 -38 -18 -73 -40 -35 -22 -68 -40 -72 -40 -5 0 -20 -8 -33 -18 -13 -10 -55 -36 -94 -57 -38 -21 -86 -48 -105 -61 -19 -13 -38 -24 -43 -24 -4 0 -36 -18 -71 -40 -35 -22 -67 -40 -72 -40 -5 0 -25 -11 -44 -24 -19 -13 -60 -37 -90 -53 -30 -17 -93 -52 -140 -78 -47 -26 -107 -60 -135 -75 -227 -123 -303 -162 -390 -203 -97 -45 -100 -46 -120 -28 -69 63 -348 221 -388 221 -8 0 -39 9 -69 19 -132 45 -345 63 -488 41 -173 -27 -406 -116 -501 -191 -20 -16 -42 -29 -49 -29 -14 0 -260 -246 -260 -261 0 -6 -13 -28 -29 -48 -29 -37 -131 -238 -131 -259 0 -6 -11 -50 -25 -97 -75 -260 -45 -559 83 -823 106 -218 299 -419 502 -521 36 -18 70 -37 75 -41 6 -4 54 -22 108 -40 l97 -33 0 -2221 0 -2221 -27 -12 c-16 -6 -59 -24 -98 -38 -135 -51 -315 -152 -315 -176 0 -5 -6 -9 -12 -9 -11 0 -105 -87 -172 -160 -65 -70 -196 -300 -215 -376 -5 -21 -21 -82 -35 -134 -47 -168 -45 -356 5 -540 11 -41 25 -92 30 -113 20 -81 139 -291 209 -371 81 -92 232 -226 255 -226 7 0 15 -3 17 -8 5 -12 104 -72 119 -72 8 0 23 -6 34 -13 41 -28 125 -57 226 -79 148 -33 380 -33 529 0 163 36 319 109 459 214 46 35 59 46 109 92 l31 29 69 -42 c37 -22 72 -41 77 -41 5 0 16 -6 24 -14 9 -7 45 -29 81 -49 58 -31 97 -54 220 -126 55 -33 190 -110 250 -143 30 -17 67 -39 82 -49 14 -11 30 -19 35 -19 5 0 37 -18 71 -40 33 -22 64 -40 67 -40 3 0 34 -18 69 -40 35 -22 66 -40 70 -40 3 0 35 -18 70 -40 35 -22 68 -40 73 -40 6 0 21 -8 34 -19 13 -10 51 -34 84 -52 33 -19 84 -47 114 -64 29 -16 80 -47 112 -68 33 -20 64 -37 69 -37 5 0 36 -18 69 -40 33 -22 63 -40 67 -40 4 0 35 -18 70 -40 35 -22 67 -40 71 -40 5 0 35 -18 68 -40 33 -22 63 -40 68 -40 4 0 36 -18 71 -40 35 -22 66 -40 71 -40 4 0 19 -8 33 -19 15 -10 52 -32 82 -49 53 -29 133 -75 215 -125 39 -23 139 -81 200 -115 17 -9 58 -34 92 -54 34 -21 67 -38 71 -38 5 0 20 -8 33 -19 13 -10 54 -35 91 -55 37 -20 84 -47 104 -61 20 -14 40 -25 45 -25 4 0 38 -18 76 -41 92 -55 90 -54 163 -95 36 -20 81 -47 100 -59 31 -20 117 -69 198 -115 15 -8 49 -28 76 -44 l49 -29 -8 -151 c-14 -238 -1 -432 34 -529 88 -243 152 -348 306 -500 99 -98 134 -125 245 -189 128 -74 237 -113 394 -143 90 -17 295 -20 382 -5 159 28 395 120 472 184 15 13 42 31 60 40 17 9 32 20 32 25 0 4 15 19 34 32 34 25 206 215 206 229 0 4 18 35 40 68 22 33 40 66 40 74 0 7 6 22 13 33 90 135 133 491 86 716 -11 56 -19 102 -17 103 2 1 28 18 58 37 30 19 63 38 72 42 10 3 43 22 73 42 31 19 59 35 63 35 5 0 36 18 70 40 33 22 65 40 69 40 4 0 35 18 68 40 33 22 63 40 68 40 4 0 36 18 71 40 35 22 66 40 69 40 4 0 33 17 64 37 32 20 76 47 98 58 84 45 185 104 214 124 16 12 33 21 38 21 5 0 33 16 63 36 30 20 64 40 76 44 12 5 46 25 77 44 31 20 60 36 64 36 4 0 35 18 68 40 33 22 64 40 68 40 4 0 36 18 69 40 34 22 66 40 70 40 5 0 36 18 69 40 33 22 65 40 70 40 6 0 29 13 52 29 23 15 62 38 87 51 24 12 56 30 70 40 26 17 132 78 230 132 30 17 67 39 82 49 14 11 30 19 36 19 5 0 20 8 33 19 13 10 49 31 79 47 30 15 77 43 105 61 27 18 53 33 58 33 4 0 36 18 71 40 35 22 66 40 69 40 4 0 33 17 64 37 32 20 76 47 98 58 84 45 185 104 214 124 16 12 33 21 38 21 5 0 33 16 63 36 30 20 65 40 78 45 12 5 47 25 77 44 31 19 59 35 63 35 5 0 36 18 70 40 33 22 64 40 68 40 4 0 30 14 58 32 28 17 76 45 106 61 30 17 66 38 79 48 26 21 46 15 91 -27 70 -63 112 -96 188 -143 46 -28 87 -51 91 -51 5 0 41 -15 82 -34 41 -19 99 -39 129 -45 247 -50 368 -53 553 -17 67 14 140 31 162 40 72 26 179 78 222 107 23 16 45 29 48 29 11 0 147 115 192 162 46 47 163 198 163 209 0 4 16 36 36 71 20 34 40 77 45 93 5 17 23 71 40 120 31 88 32 96 37 294 5 229 -1 271 -55 431 -38 112 -101 230 -169 320 -43 57 -179 195 -236 241 -54 43 -202 127 -254 145 -27 9 -75 27 -106 41 l-58 26 0 2226 0 2227 63 18 c34 9 105 38 157 64 97 47 260 156 260 172 0 5 11 15 24 22 25 14 109 106 162 180 30 40 45 65 100 163 12 22 41 96 65 165 l44 125 0 240 0 240 -43 125 c-70 202 -156 343 -293 481 -121 121 -323 247 -452 282 -29 8 -88 25 -132 37 -70 20 -102 23 -255 23 -182 0 -174 1 -384 -58 -72 -20 -240 -103 -281 -139 -16 -14 -35 -26 -41 -26 -5 0 -23 -14 -40 -31 -16 -17 -44 -38 -62 -46 -31 -13 -38 -12 -70 4 -71 36 -177 95 -202 113 -14 10 -52 32 -85 49 -33 18 -94 52 -135 76 -41 24 -91 52 -110 62 -19 10 -63 35 -96 56 -34 20 -65 37 -69 37 -3 0 -25 13 -48 29 -23 15 -69 43 -102 60 -33 18 -94 52 -135 77 -41 24 -91 52 -110 62 -19 9 -60 33 -90 53 -30 19 -64 38 -74 42 -11 4 -38 19 -60 33 -91 56 -208 124 -214 124 -4 0 -32 16 -62 36 -30 20 -64 40 -76 44 -12 5 -46 25 -77 44 -31 20 -60 36 -65 36 -5 0 -20 8 -33 18 -13 10 -54 35 -91 55 -36 20 -83 48 -103 62 -21 14 -41 25 -46 25 -4 0 -38 18 -76 41 -92 55 -90 54 -163 95 -36 20 -81 47 -100 59 -32 20 -110 65 -230 133 -25 14 -61 36 -80 49 -19 12 -40 23 -46 23 -6 0 -22 8 -35 18 -13 10 -55 36 -94 57 -38 20 -77 43 -85 50 -14 11 -75 46 -175 100 -22 11 -66 38 -98 58 -31 20 -61 37 -66 37 -4 0 -25 11 -45 25 -20 13 -61 38 -91 55 -30 17 -71 42 -91 55 -20 14 -40 25 -44 25 -8 0 -217 125 -237 142 -17 14 -16 48 2 133 23 111 19 293 -9 438 -27 131 -33 152 -72 237 -48 103 -69 141 -86 160 -10 11 -18 23 -18 29 0 30 -262 301 -292 301 -4 0 -27 15 -51 33 -52 39 -203 112 -277 132 -179 50 -320 66 -475 54z m1120 -2106 c118 -71 192 -113 197 -113 4 0 34 -18 67 -40 33 -22 63 -40 67 -40 4 0 35 -18 70 -40 35 -22 67 -40 71 -40 5 0 35 -18 68 -40 33 -22 63 -40 68 -40 4 0 36 -18 71 -40 35 -22 66 -40 69 -40 4 0 31 -16 62 -35 30 -20 63 -39 73 -42 9 -4 35 -19 57 -33 22 -15 64 -40 94 -54 29 -15 59 -32 65 -37 11 -10 148 -89 201 -117 17 -9 53 -31 82 -49 29 -18 56 -33 61 -33 5 0 26 -11 46 -25 20 -13 61 -38 91 -55 30 -17 71 -42 91 -55 20 -14 41 -25 45 -25 5 0 33 -15 62 -34 29 -19 69 -41 88 -50 18 -9 70 -39 114 -66 44 -27 103 -61 130 -76 28 -15 74 -42 103 -60 29 -19 57 -34 63 -34 5 0 15 -5 22 -10 27 -23 103 -70 113 -70 6 0 22 -8 35 -19 13 -10 49 -31 79 -47 30 -15 74 -40 97 -56 23 -15 52 -32 65 -37 13 -5 48 -26 78 -45 30 -20 59 -36 64 -36 5 0 17 -6 25 -14 9 -7 45 -29 81 -49 66 -35 153 -86 225 -130 22 -14 67 -39 100 -57 33 -18 71 -41 84 -51 13 -11 28 -19 34 -19 5 0 38 -18 73 -40 35 -22 68 -40 72 -40 5 0 20 -8 33 -19 13 -10 53 -34 89 -54 63 -34 65 -36 68 -78 2 -24 -4 -86 -13 -137 -23 -122 -16 -353 13 -457 11 -38 23 -86 26 -106 8 -44 96 -227 131 -273 14 -18 25 -37 25 -41 0 -11 114 -141 164 -188 44 -40 64 -56 138 -111 59 -44 231 -132 278 -141 19 -4 50 -15 67 -23 l33 -16 0 -2221 0 -2222 -23 -10 c-13 -6 -54 -23 -93 -37 -186 -72 -316 -158 -448 -298 -146 -155 -241 -327 -291 -528 -26 -103 -29 -132 -29 -275 0 -88 1 -185 3 -216 1 -31 -3 -75 -9 -98 -9 -35 -21 -48 -79 -86 -38 -25 -71 -45 -75 -45 -4 0 -34 -18 -67 -40 -33 -22 -63 -40 -67 -40 -5 0 -85 -46 -197 -113 -27 -16 -75 -43 -105 -60 -30 -17 -66 -38 -79 -49 -13 -10 -29 -18 -36 -18 -7 0 -23 -8 -36 -18 -13 -10 -55 -36 -94 -57 -38 -21 -81 -46 -95 -55 -14 -10 -49 -30 -78 -46 -111 -60 -130 -71 -183 -104 -30 -18 -72 -43 -94 -55 -112 -61 -161 -89 -175 -100 -8 -7 -46 -30 -85 -50 -38 -21 -81 -47 -94 -57 -13 -10 -28 -18 -33 -18 -6 0 -36 -16 -68 -36 -32 -19 -71 -43 -88 -52 -66 -37 -169 -96 -202 -117 -19 -12 -64 -39 -100 -59 -73 -41 -71 -40 -163 -95 -38 -23 -72 -41 -76 -41 -5 0 -25 -11 -45 -25 -20 -14 -67 -41 -104 -61 -37 -20 -78 -45 -91 -55 -13 -11 -28 -19 -33 -19 -4 0 -37 -17 -71 -38 -34 -20 -75 -45 -92 -54 -61 -34 -161 -92 -200 -115 -89 -54 -163 -97 -225 -130 -36 -20 -72 -42 -81 -49 -8 -8 -20 -14 -25 -14 -5 0 -34 -16 -64 -36 -30 -19 -65 -40 -78 -45 -13 -5 -42 -22 -65 -37 -23 -16 -67 -41 -97 -56 -30 -16 -66 -37 -79 -47 -13 -11 -29 -19 -35 -19 -7 0 -27 -11 -45 -24 l-33 -25 -87 69 c-47 38 -97 78 -111 88 -35 27 -243 132 -260 132 -8 0 -46 11 -85 24 -158 53 -426 61 -585 17 -41 -11 -97 -27 -125 -35 -116 -32 -284 -131 -411 -242 l-59 -51 -75 43 c-41 24 -97 55 -125 70 -27 15 -73 42 -101 60 -28 19 -55 34 -59 34 -4 0 -36 18 -71 40 -35 22 -68 40 -72 40 -5 0 -20 8 -33 19 -13 10 -54 35 -91 55 -37 20 -84 47 -104 61 -20 14 -40 25 -45 25 -4 0 -38 18 -76 41 -92 55 -90 54 -163 95 -36 20 -81 47 -100 59 -33 21 -136 80 -202 117 -17 9 -56 33 -88 52 -32 20 -62 36 -68 36 -5 0 -20 8 -33 18 -13 10 -55 36 -94 57 -38 20 -77 43 -85 50 -8 7 -42 27 -75 45 -61 32 -81 43 -246 139 -52 30 -119 67 -149 84 -30 17 -62 36 -70 42 -8 7 -46 30 -85 50 -38 21 -81 47 -94 57 -13 10 -28 18 -34 18 -5 0 -38 18 -73 40 -35 22 -68 40 -72 40 -5 0 -20 8 -33 19 -13 10 -54 35 -91 55 -37 20 -84 47 -104 61 -20 14 -40 25 -45 25 -4 0 -38 18 -76 41 -92 55 -90 54 -163 95 -36 20 -81 47 -100 59 -33 21 -136 80 -202 117 -17 9 -56 33 -88 52 -32 20 -62 36 -68 36 -5 0 -20 8 -33 18 -13 10 -54 35 -91 55 -36 20 -83 47 -103 61 -20 14 -46 28 -57 32 -19 6 -20 11 -14 98 18 253 18 331 2 421 -32 182 -121 403 -207 511 -16 20 -29 40 -29 43 0 13 -167 177 -220 217 -79 60 -200 131 -252 149 -25 8 -70 26 -102 40 l-56 25 0 2229 0 2228 73 23 c152 49 309 145 439 268 182 175 309 420 354 682 16 95 16 123 -2 437 -5 94 -4 114 9 127 9 9 20 16 26 16 6 0 34 15 63 34 29 18 76 45 103 60 28 15 86 49 130 76 44 27 96 57 114 66 19 9 59 31 88 50 29 19 56 34 60 34 3 0 34 18 69 40 35 22 66 40 69 40 3 0 34 18 67 40 34 22 66 40 70 40 5 0 36 18 69 40 33 22 64 40 68 40 7 0 121 65 201 115 31 20 167 97 240 137 30 17 67 39 82 49 14 11 30 19 36 19 5 0 20 8 33 18 13 10 56 36 94 57 39 21 81 46 95 55 14 10 48 29 75 44 28 14 73 40 100 56 28 16 66 39 85 50 19 11 42 24 50 29 8 5 49 28 90 51 41 24 98 56 125 73 28 16 75 43 105 60 30 17 66 38 79 49 13 10 28 18 34 18 5 0 38 18 73 40 35 22 67 40 71 40 5 0 28 14 53 31 40 27 68 43 199 115 21 11 62 36 92 54 30 18 72 43 94 55 79 43 141 79 192 112 28 18 55 33 60 33 5 0 33 16 63 36 30 20 64 40 76 44 12 5 46 25 77 44 31 20 59 36 63 36 4 0 30 15 58 34 28 18 71 43 95 56 43 22 45 22 75 4 17 -9 50 -33 72 -53 147 -127 365 -228 574 -267 99 -18 277 -18 381 1 165 29 387 118 486 194 15 12 64 51 108 85 l80 63 50 -27 c27 -15 73 -41 100 -57z"/>
 <path d="M7798 11790 c-159 -54 -280 -105 -493 -211 -193 -96 -319 -165 -362 -198 -14 -12 -30 -21 -35 -21 -5 0 -33 -18 -63 -40 -30 -22 -58 -40 -62 -40 -4 0 -30 -18 -58 -40 -27 -22 -53 -40 -57 -40 -6 0 -152 -108 -196 -144 -7 -6 -35 -29 -63 -51 -74 -59 -254 -218 -338 -299 -84 -82 -333 -356 -386 -427 -152 -202 -200 -269 -240 -334 -11 -18 -35 -53 -52 -78 -18 -25 -33 -50 -33 -55 0 -5 -10 -22 -22 -37 -11 -15 -40 -62 -64 -104 -50 -91 -234 -459 -234 -469 0 -4 -17 -47 -39 -97 -45 -105 -44 -102 -128 -350 -35 -104 -68 -210 -73 -235 -5 -25 -24 -106 -44 -180 -83 -323 -124 -610 -162 -1149 -18 -252 -13 -377 19 -436 9 -17 20 -39 26 -51 10 -22 76 -79 206 -179 43 -33 95 -75 115 -92 21 -18 41 -33 45 -33 4 0 27 -17 51 -37 23 -21 66 -56 96 -79 112 -85 182 -140 218 -171 21 -18 42 -33 47 -33 6 0 18 -9 29 -21 10 -12 64 -55 119 -96 55 -42 105 -81 110 -87 6 -7 26 -23 45 -36 19 -13 40 -29 45 -36 6 -6 58 -48 116 -92 58 -45 111 -88 119 -96 7 -9 17 -16 23 -16 5 0 29 -17 53 -37 41 -37 70 -60 204 -163 36 -27 84 -66 107 -85 23 -19 45 -35 49 -35 4 0 26 -17 49 -38 23 -20 75 -62 115 -92 40 -30 91 -69 114 -87 23 -18 60 -47 84 -65 23 -18 62 -49 86 -68 24 -19 76 -60 116 -90 40 -30 90 -70 110 -88 21 -17 41 -32 45 -32 4 0 27 -17 50 -37 24 -21 96 -78 160 -128 65 -49 135 -105 155 -123 21 -17 41 -32 45 -32 4 0 27 -17 50 -38 60 -53 179 -143 227 -171 29 -18 60 -25 113 -29 63 -4 80 -1 126 20 30 14 65 35 78 47 13 11 27 21 30 21 3 0 23 15 43 33 20 17 69 57 109 87 39 30 105 82 147 115 41 33 83 65 94 71 11 6 31 22 46 36 15 13 45 37 67 54 107 81 181 139 193 151 7 7 17 13 20 13 4 0 20 12 37 28 16 15 39 34 51 42 57 39 268 204 282 221 9 10 21 19 26 19 4 0 25 15 46 33 20 17 90 73 155 122 64 50 136 107 160 128 23 20 46 37 50 37 4 0 24 15 45 33 20 17 90 73 155 122 64 50 136 107 160 128 23 20 46 37 50 37 4 0 24 15 45 33 20 17 65 53 99 80 152 117 185 144 220 174 20 18 39 33 42 33 3 0 19 11 35 26 16 14 57 46 92 71 34 26 62 50 62 55 0 4 6 8 13 8 6 0 31 17 54 38 23 20 74 62 114 92 39 30 106 82 147 115 41 33 85 67 98 75 35 23 89 70 148 127 54 52 54 53 62 130 15 162 -12 602 -56 923 -34 248 -40 283 -66 396 -14 60 -30 136 -35 169 -24 142 -197 689 -231 730 -4 5 -8 17 -8 26 0 10 -18 56 -40 103 -22 47 -40 87 -40 90 0 8 -128 267 -171 346 -68 124 -73 133 -112 193 -20 31 -37 60 -37 63 0 4 -17 29 -37 57 -21 28 -42 59 -48 69 -21 37 -90 134 -122 171 -18 20 -33 41 -33 45 0 5 -9 18 -20 30 -11 12 -52 61 -90 109 -157 196 -393 435 -590 599 -52 43 -97 81 -100 84 -3 3 -22 16 -42 30 -21 14 -38 28 -38 32 0 3 -17 17 -37 29 -21 13 -48 32 -59 42 -12 10 -61 45 -110 77 -49 33 -100 67 -114 77 -23 17 -146 93 -220 135 -199 116 -547 280 -680 322 -25 8 -78 26 -117 40 -104 37 -161 35 -305 -14z"/>
 </g>
<g id="layer102" fill="#5f2701" stroke="none">
 <path d="M8105 15961 c233 -41 471 -142 623 -263 26 -21 51 -38 56 -38 8 0 -68 62 -156 126 -57 42 -219 120 -288 139 -112 31 -236 55 -285 54 -43 -1 -35 -3 50 -18z"/>
 <path d="M7402 15835 c-45 -24 -110 -66 -145 -92 -67 -52 -182 -163 -209 -203 -10 -14 -30 -41 -44 -60 -20 -27 -16 -24 16 10 195 204 272 270 413 349 31 18 57 34 57 37 0 6 0 6 -88 -41z"/>
 <path d="M8870 15565 c8 -11 23 -31 35 -45 68 -81 175 -304 207 -431 12 -49 24 -87 26 -84 5 5 -25 136 -41 180 -22 60 -89 201 -111 230 -12 17 -27 41 -34 55 -8 14 -32 45 -54 70 -23 25 -35 36 -28 25z"/>
 <path d="M7785 15387 c-76 -26 -132 -58 -198 -113 -116 -95 -182 -197 -207 -319 -17 -84 -15 -276 5 -349 50 -188 229 -358 431 -411 77 -20 239 -20 318 1 189 49 356 203 415 384 49 150 51 266 6 407 -31 98 -87 184 -170 262 -117 109 -204 140 -415 147 -106 3 -156 0 -185 -9z"/>
 <path d="M6795 14943 c-10 -83 -8 -274 4 -303 7 -18 10 29 10 168 1 105 -1 192 -3 192 -2 0 -7 -26 -11 -57z"/>
 <path d="M7215 13872 c64 -67 381 -230 403 -208 2 3 -19 11 -47 20 -61 18 -232 106 -274 142 -30 25 -100 65 -82 46z"/>
 <path d="M7908 13603 c12 -2 30 -2 40 0 9 3 -1 5 -23 4 -22 0 -30 -2 -17 -4z"/>
 <path d="M13818 12543 c29 -2 74 -2 100 0 26 2 2 3 -53 3 -55 0 -76 -1 -47 -3z"/>
 <path d="M13995 12533 c113 -16 300 -78 410 -137 206 -109 374 -273 493 -481 29 -49 52 -86 52 -81 0 6 -23 51 -51 100 -126 221 -289 376 -517 491 -106 54 -324 117 -390 114 -26 -2 -26 -2 3 -6z"/>
 <path d="M1745 12496 c-265 -79 -487 -244 -649 -481 -30 -44 -53 -82 -50 -84 5 -5 0 -12 65 84 30 44 92 118 139 165 148 148 297 238 505 306 154 51 147 57 -10 10z"/>
 <path d="M2437 12480 c62 -21 161 -64 220 -94 60 -31 97 -47 83 -36 -48 39 -205 113 -299 142 -134 40 -136 33 -4 -12z"/>
 <path d="M13535 12500 c-27 -10 -59 -19 -70 -19 -28 -1 -234 -106 -270 -138 l-30 -26 30 18 c91 56 231 121 324 150 58 19 97 34 86 34 -11 0 -42 -9 -70 -19z"/>
 <path d="M1935 11965 c-132 -37 -278 -141 -354 -255 -129 -194 -146 -428 -45 -638 51 -105 155 -208 268 -262 372 -180 774 3 877 399 22 84 25 229 8 313 -38 179 -250 395 -435 442 -76 20 -249 20 -319 1z"/>
 <path d="M13743 11970 c-97 -13 -203 -68 -285 -148 -67 -65 -168 -200 -168 -226 0 -7 -7 -27 -16 -44 -8 -17 -22 -66 -31 -109 -37 -183 37 -394 192 -545 69 -68 206 -141 294 -158 197 -37 426 35 569 179 152 154 216 393 163 604 -19 71 -28 92 -84 191 -35 62 -141 162 -202 191 -118 55 -301 83 -432 65z"/>
 <path d="M1028 11898 c-24 -44 -58 -121 -55 -124 2 -2 20 30 40 71 20 41 35 75 32 75 -2 0 -10 -10 -17 -22z"/>
 <path d="M7868 11814 c-27 -8 -48 -16 -48 -17 0 -1 62 -2 138 -3 112 0 149 -5 202 -22 36 -12 72 -22 80 -22 8 0 -36 18 -99 40 -126 44 -190 50 -273 24z"/>
 <path d="M14951 11817 c-1 -5 15 -55 34 -111 32 -93 36 -117 41 -252 9 -195 -6 -313 -57 -469 -65 -195 -159 -345 -306 -485 -107 -101 -151 -134 -260 -191 -45 -24 -81 -45 -79 -47 7 -6 159 79 223 125 75 53 207 179 258 247 98 129 165 272 210 445 22 83 25 114 25 275 0 117 -5 204 -14 246 -13 60 -74 236 -75 217z"/>
 <path d="M946 11694 c-10 -31 -16 -58 -14 -60 3 -2 12 21 22 52 10 31 16 58 14 60 -3 2 -12 -21 -22 -52z"/>
 <path d="M8451 11666 c10 -9 69 -36 69 -32 0 6 -55 36 -66 36 -4 0 -5 -2 -3 -4z"/>
 <path d="M7365 11609 c-22 -10 -34 -19 -27 -19 15 0 72 28 72 35 0 6 3 7 -45 -16z"/>
 <path d="M12687 11575 c-4 -16 -10 -95 -14 -175 -4 -112 -2 -165 11 -233 19 -98 40 -162 30 -87 -4 25 -9 153 -13 285 -4 147 -9 228 -14 210z"/>
 <path d="M8640 11576 c0 -8 131 -79 136 -74 2 3 -27 21 -66 42 -38 20 -70 34 -70 32z"/>
 <path d="M7200 11525 c-25 -13 -41 -24 -37 -25 11 0 87 39 87 45 0 7 0 7 -50 -20z"/>
 <path d="M3251 11328 c0 -145 3 -194 10 -173 12 37 20 262 12 328 -13 105 -23 35 -22 -155z"/>
 <path d="M7090 11465 c-30 -19 -52 -35 -48 -35 9 0 108 60 108 66 0 6 -2 5 -60 -31z"/>
 <path d="M8790 11497 c0 -5 116 -77 124 -77 6 0 43 -23 221 -139 102 -66 255 -175 311 -220 18 -15 60 -48 95 -76 253 -201 607 -568 794 -825 22 -30 51 -68 63 -85 12 -16 47 -67 77 -112 30 -46 57 -83 60 -83 7 0 -85 142 -111 171 -13 14 -24 29 -24 35 0 5 -17 30 -37 56 -21 25 -56 69 -78 98 -106 140 -214 260 -379 425 -191 190 -232 227 -410 367 -180 142 -275 211 -356 261 -25 15 -76 48 -115 72 -38 24 -89 55 -111 67 -104 58 -124 68 -124 65z"/>
 <path d="M6961 11390 c-34 -22 -64 -40 -67 -40 -11 0 -213 -139 -326 -225 -44 -33 -94 -71 -113 -85 -235 -177 -632 -574 -775 -774 -8 -11 -23 -28 -32 -38 -10 -9 -29 -34 -43 -55 -13 -21 -54 -78 -90 -128 -36 -49 -68 -97 -72 -105 -4 -8 -16 -28 -28 -45 -27 -37 -37 -55 -32 -55 3 0 31 39 63 86 33 48 66 96 74 108 114 166 324 411 520 607 302 303 579 526 899 724 79 49 101 65 88 65 -2 0 -32 -18 -66 -40z"/>
 <path d="M7851 11196 c-57 -19 -109 -40 -114 -45 -6 -6 -17 -11 -24 -11 -19 0 -306 -136 -428 -204 -44 -24 -94 -51 -112 -59 -58 -28 -256 -158 -343 -225 -471 -365 -859 -842 -1144 -1407 -56 -110 -107 -213 -114 -230 -140 -314 -258 -684 -326 -1015 -47 -231 -116 -775 -116 -914 0 -63 5 -69 170 -212 160 -140 894 -724 1091 -869 83 -61 755 -597 1199 -955 149 -121 347 -271 387 -293 19 -11 189 124 559 443 325 281 1053 870 1409 1140 18 14 88 69 156 122 269 210 657 514 684 536 l28 22 -17 163 c-61 579 -121 923 -223 1282 -42 146 -119 378 -141 422 -17 35 -40 88 -57 133 -22 61 -171 347 -201 387 -13 17 -24 35 -24 39 0 11 -95 155 -174 264 -270 371 -641 746 -1023 1036 -110 83 -142 105 -263 182 -268 171 -537 289 -675 299 -49 3 -79 -3 -164 -31z"/>
 <path d="M952 11010 c0 -8 4 -26 8 -40 6 -20 8 -21 8 -5 0 11 -3 29 -8 40 -5 12 -8 14 -8 5z"/>
 <path d="M970 10937 c0 -18 96 -196 142 -264 59 -85 192 -221 258 -265 25 -16 32 -19 15 -6 -62 46 -213 208 -268 286 -31 45 -57 83 -57 86 0 8 -90 171 -90 163z"/>
 <path d="M3135 10819 c-109 -185 -303 -385 -482 -498 -70 -44 -67 -49 5 -9 157 89 320 235 406 366 48 73 131 222 123 222 -2 0 -26 -37 -52 -81z"/>
 <path d="M12860 10708 c59 -84 76 -104 150 -181 118 -124 301 -244 428 -282 66 -20 63 -12 -5 13 -184 68 -414 249 -552 435 -48 66 -66 78 -21 15z"/>
 <path d="M14240 10240 c-11 -8 -7 -9 15 -4 37 8 45 14 19 14 -10 0 -26 -5 -34 -10z"/>
 <path d="M10564 9824 c10 -17 27 -41 38 -55 16 -20 16 -17 -3 19 -13 24 -30 49 -38 55 -11 9 -10 3 3 -19z"/>
 <path d="M10639 9703 c27 -51 81 -136 81 -128 0 10 -80 145 -86 145 -3 0 0 -8 5 -17z"/>
 <path d="M10751 9500 c18 -32 35 -57 37 -55 5 4 -57 115 -64 115 -3 0 9 -27 27 -60z"/>
 <path d="M10791 9428 c-1 -3 20 -50 45 -105 25 -54 60 -128 77 -165 17 -37 32 -66 34 -64 2 2 -12 39 -32 82 -54 118 -124 260 -124 252z"/>
 <path d="M10962 9030 c21 -58 62 -149 65 -146 5 4 -54 147 -64 156 -3 3 -4 -2 -1 -10z"/>
 <path d="M11046 8800 c3 -14 10 -32 15 -40 7 -13 8 -13 8 0 0 8 -6 26 -15 40 l-15 25 7 -25z"/>
 <path d="M4841 8658 c-17 -51 -31 -98 -30 -103 0 -6 16 35 35 89 18 55 32 101 30 103 -2 3 -18 -38 -35 -89z"/>
 <path d="M11077 8720 c3 -14 12 -41 20 -60 11 -30 12 -31 8 -6 -4 16 -13 43 -20 60 -11 23 -13 25 -8 6z"/>
 <path d="M11122 8560 c0 -8 6 -31 13 -50 7 -19 13 -28 13 -20 0 8 -6 31 -13 50 -7 19 -13 28 -13 20z"/>
 <path d="M4790 8477 c0 -4 -14 -57 -30 -118 -17 -62 -29 -116 -27 -122 2 -6 17 45 35 113 18 68 30 126 27 128 -3 3 -5 2 -5 -1z"/>
 <path d="M11161 8430 c0 -8 4 -24 9 -35 5 -13 9 -14 9 -5 0 8 -4 24 -9 35 -5 13 -9 14 -9 5z"/>
 <path d="M11192 8300 c0 -19 2 -27 5 -17 2 9 2 25 0 35 -3 9 -5 1 -5 -18z"/>
 <path d="M4696 8054 c-16 -79 -27 -147 -24 -149 2 -2 17 61 33 140 15 80 26 147 24 150 -3 2 -18 -61 -33 -141z"/>
 <path d="M4632 7610 c0 -19 2 -27 5 -17 2 9 2 25 0 35 -3 9 -5 1 -5 -18z"/>
 <path d="M11333 7390 c0 -30 2 -43 4 -27 2 15 2 39 0 55 -2 15 -4 2 -4 -28z"/>
 <path d="M11341 7044 c0 -186 4 -260 10 -239 9 28 3 495 -7 504 -2 2 -4 -117 -3 -265z"/>
 <path d="M4590 6820 c0 -38 62 -140 108 -177 26 -21 49 -40 52 -43 3 -3 23 -19 45 -36 22 -17 68 -53 103 -80 89 -69 129 -100 224 -172 120 -92 33 -12 -172 158 -220 182 -319 277 -341 325 -10 22 -19 33 -19 25z"/>
 <path d="M11214 6624 c-47 -45 -49 -48 -10 -15 27 23 52 41 56 41 4 0 10 7 14 15 3 8 4 15 2 15 -1 0 -29 -25 -62 -56z"/>
 <path d="M1625 5685 c-148 -60 -255 -135 -383 -265 -102 -104 -156 -176 -214 -289 -47 -90 -45 -105 1 -18 140 258 362 463 614 567 42 17 77 34 77 36 0 7 -13 3 -95 -31z"/>
 <path d="M2685 5610 c4 -6 23 -21 43 -34 54 -34 236 -210 298 -287 29 -37 74 -101 99 -143 26 -42 49 -76 52 -76 2 0 -4 15 -15 33 -10 17 -35 61 -55 97 -19 36 -45 74 -56 84 -12 11 -21 23 -21 28 0 21 -133 154 -220 222 -61 47 -135 92 -125 76z"/>
 <path d="M14459 5606 c7 -9 19 -16 25 -16 16 0 170 -129 219 -183 67 -73 142 -170 171 -220 15 -27 30 -47 32 -44 4 4 -38 75 -97 163 -35 52 -158 175 -232 231 -72 54 -138 93 -118 69z"/>
 <path d="M13151 5547 c-95 -74 -214 -200 -277 -292 -56 -82 -100 -165 -88 -165 3 0 12 16 20 35 39 95 203 291 323 387 98 79 97 78 86 78 -6 0 -34 -20 -64 -43z"/>
 <path d="M1984 5190 c-97 -11 -136 -24 -221 -77 -133 -81 -238 -224 -277 -378 -20 -76 -20 -214 -1 -290 57 -221 216 -390 418 -445 112 -31 263 -31 362 0 219 68 396 262 425 465 13 94 13 212 -1 277 -36 171 -259 407 -412 437 -78 15 -213 20 -293 11z"/>
 <path d="M13770 5190 c-98 -12 -148 -28 -225 -71 -201 -112 -314 -321 -302 -559 10 -205 125 -399 300 -503 168 -101 442 -105 622 -9 108 58 228 211 282 358 91 252 -25 555 -270 707 -40 25 -92 52 -117 60 -57 19 -205 28 -290 17z"/>
 <path d="M14925 5100 c9 -16 31 -80 50 -140 72 -229 72 -529 0 -749 -71 -215 -245 -439 -472 -607 -40 -30 -73 -56 -73 -58 0 -3 24 10 53 29 185 120 321 264 420 445 53 98 80 169 114 295 23 84 24 103 21 300 l-4 210 -41 121 c-40 118 -68 184 -79 184 -2 0 2 -13 11 -30z"/>
 <path d="M12706 4883 c-35 -157 -47 -354 -27 -458 7 -38 7 -37 14 30 4 39 7 122 7 185 0 63 5 148 10 189 10 75 8 105 -4 54z"/>
 <path d="M3251 4635 c-1 -196 10 -283 22 -173 7 67 0 280 -12 333 -6 28 -9 -20 -10 -160z"/>
 <path d="M7282 4622 c18 -15 51 -41 73 -58 32 -24 127 -97 190 -146 6 -4 31 -25 56 -45 108 -88 213 -165 251 -185 46 -24 146 -33 200 -18 33 10 128 72 213 141 28 22 83 65 123 95 39 31 72 58 72 60 0 5 -62 -38 -200 -136 -106 -76 -221 -139 -265 -146 -34 -5 -52 0 -117 34 -95 49 -461 306 -576 404 -18 15 -37 28 -43 28 -5 0 5 -12 23 -28z"/>
 <path d="M935 4300 c27 -119 99 -290 153 -359 15 -20 32 -43 37 -53 39 -65 220 -243 283 -278 15 -8 41 -25 57 -36 44 -32 222 -111 285 -127 106 -28 144 -27 45 1 -165 46 -326 128 -466 236 -58 46 -147 146 -213 243 -42 61 -124 229 -161 328 -14 39 -23 59 -20 45z"/>
 <path d="M2845 3684 c-59 -48 -193 -134 -248 -159 -32 -13 -57 -27 -57 -30 0 -7 108 42 145 65 17 11 46 28 65 39 19 11 58 40 85 65 53 48 60 62 10 20z"/>
 <path d="M13090 3679 c46 -40 220 -155 220 -146 0 2 -30 24 -67 47 -38 24 -90 63 -117 87 -26 24 -53 43 -60 43 -6 0 5 -14 24 -31z"/>
 <path d="M13345 3520 c11 -18 156 -70 256 -92 88 -19 130 -23 269 -22 117 2 181 7 220 18 30 8 40 13 22 11 -151 -21 -229 -26 -307 -21 -126 9 -328 53 -403 86 -34 16 -60 25 -57 20z"/>
 <path d="M1978 3403 c12 -2 32 -2 45 0 12 2 2 4 -23 4 -25 0 -35 -2 -22 -4z"/>
 <path d="M7758 2370 c-92 -19 -162 -40 -156 -46 2 -2 28 3 58 11 167 45 478 37 666 -16 101 -28 242 -93 303 -140 14 -11 49 -35 76 -55 l50 -35 -36 33 c-134 122 -369 225 -586 257 -107 16 -275 12 -375 -9z"/>
 <path d="M7201 2105 c-34 -30 -58 -55 -53 -55 5 0 37 25 71 55 34 30 58 55 53 55 -5 0 -37 -25 -71 -55z"/>
 <path d="M7804 1805 c-141 -30 -285 -137 -373 -274 -85 -133 -111 -297 -71 -456 26 -103 45 -145 107 -233 108 -153 282 -248 473 -259 169 -10 333 40 441 136 66 58 145 182 176 276 23 69 27 97 27 210 1 173 -20 243 -103 347 -76 95 -181 195 -224 213 -50 21 -260 55 -331 54 -33 0 -88 -7 -122 -14z"/>
 <path d="M6788 1284 c-2 -107 3 -218 13 -255 5 -20 6 38 2 141 -6 184 -12 231 -15 114z"/>
 <path d="M9117 934 c-59 -226 -181 -437 -350 -606 -49 -49 -58 -61 -29 -39 57 45 192 193 221 244 12 23 29 49 36 57 32 36 114 241 135 338 12 57 20 105 18 107 -2 2 -16 -44 -31 -101z"/>
 <path d="M6880 730 c0 -14 11 -34 79 -155 63 -111 216 -273 335 -354 71 -48 176 -106 176 -96 0 2 -24 16 -52 31 -173 86 -363 280 -487 499 -28 49 -51 83 -51 75z"/>
 <path d="M7652 54 c3 -3 48 -14 99 -24 97 -20 282 -26 384 -11 30 4 -28 7 -145 7 -151 0 -210 4 -263 17 -74 18 -83 20 -75 11z"/>
 </g>
<g id="layer103" fill="#606060" stroke="none">
 <path d="M7796 15390 c-134 -35 -304 -177 -369 -310 -46 -94 -57 -153 -57 -294 0 -179 33 -276 133 -395 55 -66 122 -115 210 -156 182 -84 408 -72 585 31 117 68 222 212 269 369 28 95 23 249 -11 350 -66 193 -231 353 -406 394 -64 15 -308 22 -354 11z"/>
 <path d="M1978 11966 c-136 -31 -245 -93 -332 -187 -111 -120 -167 -261 -168 -424 -1 -174 52 -304 172 -425 124 -124 262 -180 445 -180 316 1 555 219 595 547 31 246 -65 443 -285 591 -112 75 -296 108 -427 78z"/>
 <path d="M13730 11964 c-170 -33 -322 -158 -420 -345 -92 -176 -93 -367 -3 -540 142 -275 429 -402 710 -316 87 26 199 87 260 140 137 120 223 366 193 549 -24 143 -98 288 -193 375 -51 47 -147 96 -232 118 -59 16 -267 28 -315 19z"/>
 <path d="M7915 11211 c-244 -74 -667 -283 -944 -466 -355 -234 -738 -630 -1018 -1050 -468 -703 -720 -1473 -808 -2467 l-16 -178 26 -34 c51 -67 429 -378 969 -796 131 -102 255 -198 276 -215 21 -16 61 -48 90 -70 29 -22 80 -62 114 -90 35 -27 109 -86 165 -130 97 -75 216 -170 757 -606 264 -212 399 -316 435 -334 25 -13 30 -12 65 11 57 39 265 208 368 299 128 113 296 256 604 512 23 19 60 49 82 67 349 278 480 381 1060 836 171 135 327 256 345 270 18 14 99 76 180 139 l147 115 -6 35 c-3 20 -17 140 -31 266 -31 274 -38 325 -71 520 -14 83 -28 164 -31 180 -12 80 -100 424 -140 553 -135 435 -334 828 -589 1166 -32 43 -68 90 -79 105 -63 85 -269 315 -385 431 -341 342 -727 629 -1090 811 -123 62 -296 124 -370 133 -29 3 -66 -1 -105 -13z"/>
 <path d="M11352 6990 c0 -19 2 -27 5 -17 2 9 2 25 0 35 -3 9 -5 1 -5 -18z"/>
 <path d="M1985 5189 c-76 -8 -104 -16 -175 -51 -208 -104 -340 -316 -340 -550 0 -100 18 -177 66 -278 28 -59 53 -92 124 -162 49 -48 94 -88 101 -88 7 0 20 -6 28 -14 69 -59 323 -85 466 -46 147 39 309 165 377 293 46 87 62 167 62 312 0 154 -7 185 -65 281 -40 66 -159 188 -232 238 -86 59 -233 82 -412 65z"/>
 <path d="M13770 5189 c-146 -17 -270 -78 -363 -179 -106 -114 -157 -235 -164 -390 -6 -107 9 -181 57 -287 67 -148 214 -285 343 -321 108 -29 125 -32 222 -32 179 0 304 48 415 161 153 157 225 373 186 559 -39 188 -166 352 -336 438 -115 57 -200 69 -360 51z"/>
 <path d="M7805 1799 c-216 -49 -402 -244 -450 -474 -19 -89 -19 -118 1 -213 49 -242 230 -441 457 -502 109 -29 287 -25 387 10 176 61 328 244 371 445 29 135 9 313 -46 414 -40 73 -150 196 -219 246 -59 42 -72 46 -181 65 -122 21 -251 24 -320 9z"/>
 </g>
<g id="layer104" fill="#ff6600" stroke="none">
 <path d="M7765 15376 c-103 -32 -287 -192 -334 -289 -41 -85 -56 -166 -56 -297 0 -171 27 -260 112 -372 76 -100 197 -180 323 -214 87 -23 243 -23 330 0 261 71 439 308 440 586 0 287 -203 548 -460 589 -89 15 -306 13 -355 -3z"/>
 <path d="M1978 11966 c-136 -31 -245 -93 -332 -187 -111 -120 -167 -261 -168 -424 -1 -174 52 -304 172 -425 124 -124 262 -180 445 -180 316 1 555 219 595 547 31 246 -65 443 -285 591 -112 75 -296 108 -427 78z"/>
 <path d="M13730 11964 c-170 -33 -322 -158 -420 -345 -92 -176 -93 -367 -3 -540 142 -275 429 -402 710 -316 87 26 199 87 260 140 137 120 223 366 193 549 -24 143 -98 288 -193 375 -51 47 -147 96 -232 118 -59 16 -267 28 -315 19z"/>
 <path d="M7915 11211 c-244 -74 -667 -283 -944 -466 -355 -234 -738 -630 -1018 -1050 -468 -703 -720 -1473 -808 -2467 l-16 -178 26 -34 c51 -67 429 -378 969 -796 131 -102 255 -198 276 -215 21 -16 61 -48 90 -70 29 -22 80 -62 114 -90 35 -27 109 -86 165 -130 97 -75 216 -170 757 -606 264 -212 399 -316 435 -334 25 -13 30 -12 65 11 57 39 265 208 368 299 128 113 296 256 604 512 23 19 60 49 82 67 349 278 480 381 1060 836 171 135 327 256 345 270 18 14 99 76 180 139 l147 115 -6 35 c-3 20 -17 140 -31 266 -31 274 -38 325 -71 520 -14 83 -28 164 -31 180 -12 80 -100 424 -140 553 -135 435 -334 828 -589 1166 -32 43 -68 90 -79 105 -63 85 -269 315 -385 431 -341 342 -727 629 -1090 811 -123 62 -296 124 -370 133 -29 3 -66 -1 -105 -13z"/>
 <path d="M1925 5174 c-86 -19 -139 -43 -208 -97 -73 -58 -119 -111 -165 -193 -55 -98 -76 -179 -76 -294 1 -176 58 -314 182 -438 112 -113 258 -171 429 -172 98 0 163 15 258 60 100 47 185 116 246 200 68 93 90 166 96 325 9 221 -26 308 -187 465 -89 88 -153 125 -247 145 -86 18 -237 18 -328 -1z"/>
 <path d="M13720 5176 c-100 -23 -158 -47 -228 -96 -142 -99 -230 -259 -247 -449 -17 -176 85 -406 230 -521 218 -173 572 -170 773 6 111 97 203 273 226 432 15 99 -34 267 -110 379 -83 122 -207 213 -339 248 -70 18 -226 18 -305 1z"/>
 <path d="M7805 1799 c-216 -49 -402 -244 -450 -474 -19 -89 -19 -118 1 -213 49 -242 230 -441 457 -502 109 -29 287 -25 387 10 176 61 328 244 371 445 29 135 9 313 -46 414 -40 73 -150 196 -219 246 -59 42 -72 46 -181 65 -122 21 -251 24 -320 9z"/>
 </g>
<g id="layer105" fill="#ffffff" stroke="none">
 <path d="M7765 15376 c-103 -32 -287 -192 -334 -289 -41 -85 -56 -166 -56 -297 0 -171 27 -260 112 -372 76 -100 197 -180 323 -214 87 -23 243 -23 330 0 261 71 439 308 440 586 0 287 -203 548 -460 589 -89 15 -306 13 -355 -3z"/>
 <path d="M1925 5174 c-86 -19 -139 -43 -208 -97 -73 -58 -119 -111 -165 -193 -55 -98 -76 -179 -76 -294 1 -176 58 -314 182 -438 112 -113 258 -171 429 -172 98 0 163 15 258 60 100 47 185 116 246 200 68 93 90 166 96 325 9 221 -26 308 -187 465 -89 88 -153 125 -247 145 -86 18 -237 18 -328 -1z"/>
 <path d="M13720 5176 c-100 -23 -158 -47 -228 -96 -142 -99 -230 -259 -247 -449 -17 -176 85 -406 230 -521 218 -173 572 -170 773 6 111 97 203 273 226 432 15 99 -34 267 -110 379 -83 122 -207 213 -339 248 -70 18 -226 18 -305 1z"/>
 </g>

</svg>