<?xml version="1.0" encoding="utf-8"?>
<!-- Generator: Adobe Illustrator 19.1.0, SVG Export Plug-In . SVG Version: 6.00 Build 0)  -->
<svg version="1.1" id="Layer_1" xmlns="http://www.w3.org/2000/svg" xmlns:xlink="http://www.w3.org/1999/xlink" x="0px" y="0px"
	 viewBox="-237 385.7 109.7 29.3" style="enable-background:new -237 385.7 109.7 29.3;" xml:space="preserve">
<style type="text/css">
	.st0{fill:#FFFFFF;}
</style>
<g>
	<g>
		<path class="st0" d="M-231,415h-6v-23.1c0,0,0-4.4,4.4-5.8c4-1.3,6.6,1.3,6.6,1.3l19.7,21.3c1,0.6,1.4,0,1.4-0.6v-22h6.1V409
			c0,1.9-1.6,4.4-4,5.3c-2.4,0.9-4.9,0.9-7.9-1.7l-18.5-20c-0.5-0.5-1.8-0.6-1.8,0.4L-231,415L-231,415z"/>
		<path class="st0" d="M-195,386.1h6.1v20.7c0,2.2,1.9,2.2,3.6,2.2h26.8c1.1,0,2.4-1.3,2.4-2.7c0-1.4-1.3-2.8-2.5-2.8H-176
			c-3,0.1-9.2-2.7-9.2-8.5c0-7.1,5.9-8.8,8.6-9h49.4v6.1h-12.3V415h-6v-22.9h-30.2c-2.9-0.2-4.9,4.7-0.2,5.4h18.6
			c2.8,0,7.4,2.4,7.5,8.4c0,6.1-3.6,9-7.5,9H-185c-4.5,0-6.2-1.1-7.8-2.5c-1.5-1.5-1.7-2.3-2.2-5.3L-195,386.1
			C-194.9,386.1-195,386.1-195,386.1z"/>
	</g>
</g>
</svg>
